<svg xmlns="http://www.w3.org/2000/svg" xmlns:xlink="http://www.w3.org/1999/xlink" viewBox="0 0 671.22 447.79"><defs><style>.cls-1{fill:none;}.cls-2{isolation:isolate;}.cls-3,.cls-9{fill:#fff;}.cls-4{clip-path:url(#clip-path);}.cls-5{fill:url(#linear-gradient);}.cls-6{fill:url(#linear-gradient-2);}.cls-7{fill:url(#linear-gradient-3);}.cls-8{mix-blend-mode:multiply;fill:url(#radial-gradient);}.cls-13,.cls-9{mix-blend-mode:overlay;}.cls-9{opacity:0.3;}.cls-10{fill:url(#linear-gradient-4);}.cls-11{fill:url(#linear-gradient-5);}.cls-12{fill:url(#linear-gradient-6);}.cls-13{fill:url(#linear-gradient-7);}.cls-14{fill:#f6efa7;}.cls-15{fill:#e52c61;}.cls-16{fill:#5d69bf;}.cls-17{fill:#c89feb;}</style><clipPath id="clip-path"><rect class="cls-1" y="74.65" width="671.22" height="377.56"/></clipPath><linearGradient id="linear-gradient" x1="743.03" y1="539.56" x2="435.12" y2="279.13" gradientUnits="userSpaceOnUse"><stop offset="0" stop-color="#ff0078"/><stop offset="0.09" stop-color="#ff0c7a"/><stop offset="0.26" stop-color="#fd2d81"/><stop offset="0.49" stop-color="#fb638b"/><stop offset="0.77" stop-color="#f9ac9a"/><stop offset="1" stop-color="#f6efa7"/></linearGradient><linearGradient id="linear-gradient-2" x1="153.99" y1="582.46" x2="206.07" y2="337.35" xlink:href="#linear-gradient"/><linearGradient id="linear-gradient-3" x1="145.65" y1="614.66" x2="348.62" y2="329.72" gradientUnits="userSpaceOnUse"><stop offset="0.12" stop-color="#5d69bf"/><stop offset="0.27" stop-color="#696fc4"/><stop offset="0.56" stop-color="#8a80d2"/><stop offset="0.94" stop-color="#bf9be7"/><stop offset="1" stop-color="#c89feb"/></linearGradient><radialGradient id="radial-gradient" cx="1270.26" cy="-974.32" r="32.55" gradientTransform="matrix(-3.33, 0, 0, -1.59, 4340.72, -1121.19)" gradientUnits="userSpaceOnUse"><stop offset="0.12" stop-color="#6f7399"/><stop offset="0.24" stop-color="#7b7fa2"/><stop offset="0.47" stop-color="#9c9fb9"/><stop offset="0.77" stop-color="#d1d2df"/><stop offset="1" stop-color="#fff"/></radialGradient><linearGradient id="linear-gradient-4" x1="700.98" y1="518.56" x2="492.64" y2="304.86" xlink:href="#linear-gradient"/><linearGradient id="linear-gradient-5" x1="419.09" y1="541.89" x2="513.88" y2="316.26" gradientTransform="translate(-60.92 84.18) rotate(-9.64)" xlink:href="#linear-gradient-3"/><linearGradient id="linear-gradient-6" x1="73.8" y1="638.15" x2="240.27" y2="241.9" xlink:href="#linear-gradient-3"/><linearGradient id="linear-gradient-7" x1="343.66" y1="759.22" x2="172.86" y2="386.96" gradientUnits="userSpaceOnUse"><stop offset="0" stop-color="#fff"/><stop offset="1" stop-color="#fff" stop-opacity="0"/></linearGradient></defs><g class="cls-2"><g id="BACKGROUND"><rect class="cls-3" x="-39.39" y="7.73" width="750" height="500"/></g><g id="OBJECTS"><g class="cls-4"><path class="cls-5" d="M779.66,407.56a92.81,92.81,0,0,1-127.83-47.19c-2.7-6.52-4.77-13.54-9.43-18.84s-13-8.29-18.88-4.38c-7.93,5.28-5.45,17.43-1.59,26.13,6.94,15.62,15.47,30.54,21.34,46.59s9,33.72,4.64,50.24C640.05,490,607.84,509.46,577,508.18S518,488,499.51,463.26s-28.29-54.85-35-85c-1.43-6.44-2.83-13.15-6.84-18.38s-11.49-8.48-17.38-5.51c-5.12,2.59-7.26,8.7-8.54,14.29-4.81,21.07-4.11,42.94-5.26,64.53s-4.45,43.85-16.16,62S376.17,525.66,355,521.11a124.55,124.55,0,0,1-33.9-68.36c17.3-6.29,28.38-23.44,34.39-40.84s8.22-36,14.7-53.19,18.63-33.89,36.38-38.76c22.56-6.19,45.92,8.75,60.24,27.24s23.11,40.85,37.88,59,39.12,32,61.17,24.2c18-6.37,28.94-25.82,30.26-44.87S590.9,347.75,583,330.36s-17.3-34.28-22.18-52.75-4.68-39.33,5.73-55.34c12.09-18.61,37.76-27,58.52-19.19,15.73,5.94,27.27,19.41,37.08,33s18.89,28.28,32.23,38.49,32.5,15.06,47.07,6.69,19.79-29.28,11-43.47c19.37,22.52,32.9,53.82,37.36,83.19S791.49,380.31,779.66,407.56Z"/><path class="cls-6" d="M-44.94,347.14c14.7,12.84,38.19,9.14,54.36-1.79s27.5-27.49,41-41.55,31.48-26.39,50.92-24.66,35.25,17.47,43,35.35,8.91,37.8,10.29,57.23,3.2,39.4,12,56.77,26.31,31.74,45.77,31.09c22.37-.76,39.15-19.71,54.12-36.34s35-33.73,56.95-29.21c16.9,3.49,28.59,19,35.93,34.61s12.16,32.78,23.06,46.16,30.77,21.86,45.66,13.14c-9.68,21.27-19.81,44.62-34.3,63C362,557.74,324.59,539,311,509.36c-7-15.16-10.14-34.44-25.05-41.92-11.26-5.65-25.36-1.72-35.27,6.07S234,492.3,227,502.74s-15,20.89-26.28,26.56c-18.31,9.22-41.72,3.09-56.75-10.84s-22.8-34.17-26.37-54.36c-1.39-7.84-2.24-15.85-5-23.31s-7.84-14.51-15.2-17.54c-11.87-4.87-25.68,2.29-33.65,12.34s-12,22.6-18.13,33.86a100.59,100.59,0,0,1-70.38,50.19c-5.92-18.36-12.9-38.39-18.82-56.75-6.17-19.16-12.38-38.45-14.8-58.43S-53.75,365.24-44.94,347.14Z"/><path class="cls-7" d="M9.2,386c9.28,15.36,30.49,20.26,47.68,15.07s30.82-18.32,41.9-32.43,20.37-29.7,32.76-42.69,28.84-23.48,46.79-23.57c25.82-.13,47.51,21.64,56.34,45.91s7.78,50.83,7.83,76.66,1.64,52.86,14.8,75.08c9.24,15.59,25.82,28.48,43.9,27.12,20.07-1.51,34.57-19,47.29-34.64s29.35-32.06,49.39-30.15c14.11,1.35,25.49,11.59,38.08,18.11s30.94,7.89,38.33-4.2c8.8,19.42,18.35,39.74,27.16,59.17-10.27,12.77-24.15,22.32-40.54,22.6a56.88,56.88,0,0,1-43.42-19.49c-5.79-6.73-9.92-14.75-15.61-21.55s-13.72-12.58-22.59-12.27c-12.48.44-21.12,12-28.93,21.77-14.12,17.58-32.24,32.78-53.87,39.11s-47.07,2.43-63-13.51c-16.46-16.47-20-41.82-19.18-65.09s5.12-46.77.77-69.65c-2.56-13.44-10.78-28.34-24.45-29.16-9.86-.6-18.68,6.8-23.48,15.44s-6.63,18.56-9.76,27.93A105.35,105.35,0,0,1,111,488.61a105.33,105.33,0,0,1-72.48,12.3C18.16,465,5.51,427.15,9.2,386Z"/><ellipse class="cls-8" cx="113.45" cy="429.57" rx="108.31" ry="51.8" transform="translate(-154.68 75.3) rotate(-22.33)"/><path class="cls-9" d="M711,256.51c-17.57-22.13-48.26-32.95-75.82-26.71S584.53,259,578.2,286.54c-4.05,17.6-1.67,36,.52,53.88s4.15,36.41-.66,53.81-18,33.7-35.82,36.76c-19.52,3.34-38.54-10-49.51-26.46s-16.18-36-24.24-54.12-20.39-36-39.09-42.49c-29-10.14-59.33,10.61-81.1,32.32s-44.44,47.37-75.09,49.9c-27.73,2.28-53.31-15.81-71.16-37.15s-30.78-46.59-49.69-67C113.82,244.41,50.6,227.67-3.47,244.73c-13.72,25.09-21.47,52.58-20.86,81.17C-7,309,12.39,294,33.75,282.52s47.29-16.6,70.05-8.3c26,9.48,43.24,34.56,53,60.44s13.71,53.61,22.9,79.69,25.21,51.71,50.53,62.83c26,11.43,57.61,4.84,80.46-12s37.83-42.64,47-69.55c5.12-15.11,8.68-31,16.67-44.77s21.75-25.65,37.7-25.95c17.12-.33,32.08,12.8,39.75,28.11s9.7,32.72,12.82,49.56c5.08,27.43,14,55.4,33.44,75.37s51.88,29.48,76.19,15.79c16.89-9.5,26.86-28,32.17-46.63s6.84-38.17,11.76-56.91,14-37.52,30.29-48.05,40.84-9.73,52.52,5.74C718.12,321.43,730.55,281.2,711,256.51Z"/><path class="cls-10" d="M708.38,229.59a68.2,68.2,0,0,0-92.54,68c.81,12.73,5.15,24.93,8.88,37.13s6.9,25,5.28,37.61-9,25.3-20.9,29.84c-14.62,5.58-30.92-2.25-43.2-11.94s-23.44-21.74-38.34-26.54c-21-6.75-46.18,4.78-54.79,25.07-3.57,8.41-4.48,17.69-7.13,26.44-9.42,31.05-43.3,52.61-75.42,48-2.07,7.65-5.59,17.67-7.67,25.32,32.25,4.45,68.32-12,79.82-42.43,4.87-12.9,6-27,10.71-39.91s14.64-25.55,28.33-27.16c11.21-1.32,22.08,5.19,29.53,13.67s12.28,18.86,18.1,28.53c10.58,17.58,24.91,33.27,42.9,43.13s39.85,13.46,59.46,7.42,36.29-22.42,40.37-42.53c1.28-6.32,1.38-13,3.92-18.88s8.61-11.1,14.92-9.78C710.52,344.05,708.47,286.1,708.38,229.59Z"/><path class="cls-9" d="M711.34,305.24a20.87,20.87,0,0,1-4.26,13.28,28.09,28.09,0,0,1-10.43,8.37A30.57,30.57,0,0,1,683.83,330a30.14,30.14,0,0,1-3.32-.16c-.54-.06-1.08-.11-1.61-.18l-1.6-.29c-1.07-.15-2.1-.48-3.15-.71s-2.06-.61-3.06-1c-8.07-2.89-15-7.78-21.3-12.91s-12.19-10.68-18.63-15.3a64.34,64.34,0,0,0-10.12-6c-.89-.38-1.77-.81-2.68-1.13l-1.36-.52-1.39-.43c-.91-.33-1.87-.48-2.81-.72a21,21,0,0,0-2.84-.55,39.9,39.9,0,0,0-11.6,0,47.05,47.05,0,0,0-11.31,3A59.9,59.9,0,0,0,567.41,306a62.47,62.47,0,0,0-7.67,9,83.87,83.87,0,0,0-6.06,10.27,110.37,110.37,0,0,0-8.07,22.55,218,218,0,0,0-4.28,23.73c-2.06,16-3.14,32.16-6.4,48.06a120.87,120.87,0,0,1-7,23.28A99,99,0,0,1,516,464.13a115.68,115.68,0,0,1-16.35,18,118.07,118.07,0,0,1-19.86,14l-2.67,1.45c-.9.47-1.78,1-2.71,1.39l-5.54,2.52a115,115,0,0,1-11.49,4l-2.92.86-3,.66c-2,.41-3.95,1-6,1.19s-4,.62-6,.84l-6.07.43a109.46,109.46,0,0,1-24.24-1.86l-6-1.28-5.86-1.67-1.46-.43-1.43-.51-2.87-1c-.95-.35-1.92-.67-2.86-1.05L386,500.41a110.85,110.85,0,0,1-39.24-28.32l-3.86-4.73a27.26,27.26,0,0,1-1.82-2.45l-1.76-2.5A105.57,105.57,0,0,1,332.89,452c-3.93-7.11-7.37-14.43-11.15-21.52s-7.89-14-13.16-19.94a54.65,54.65,0,0,0-18.65-14.19,35.65,35.65,0,0,0-11.2-2.92,33.59,33.59,0,0,0-11.46,1.07c-7.51,1.95-14.21,6.42-20.08,11.66a147.77,147.77,0,0,0-16.13,17.62l-15.13,18.91L200.8,461.65l-15.06,19-4.57-3.74,15.61-18.53,15.55-18.57,15.55-18.59a150.53,150.53,0,0,1,17-17.7,73.16,73.16,0,0,1,10.07-7.26,43.56,43.56,0,0,1,11.57-4.81,36.78,36.78,0,0,1,12.54-1,38.57,38.57,0,0,1,12.1,3.31,57.52,57.52,0,0,1,19.42,15.15c5.39,6.25,9.48,13.4,13.21,20.58S330.8,444,334.6,451.11a101,101,0,0,0,6.18,10.3l1.71,2.47a27.75,27.75,0,0,0,1.77,2.42L348,471a109.38,109.38,0,0,0,38.51,28.17l2.75,1.22c.92.38,1.88.7,2.81,1.05l2.83,1,1.41.52,1.45.42,5.78,1.69,5.88,1.29a108.64,108.64,0,0,0,23.95,1.88l6-.41c2-.22,4-.55,6-.82s3.94-.77,5.91-1.17l2.94-.64,2.88-.86a111.73,111.73,0,0,0,11.38-4l5.48-2.49c.93-.38,1.79-.9,2.68-1.37l2.66-1.42a108.4,108.4,0,0,0,35.78-31.69,98.5,98.5,0,0,0,11.7-21,119.63,119.63,0,0,0,6.83-23.06c3.16-15.8,4.07-31.95,6-48a217.31,217.31,0,0,1,4.12-24c1-3.95,2-7.88,3.34-11.74a104.66,104.66,0,0,1,4.57-11.35,85.14,85.14,0,0,1,6.08-10.66,65.54,65.54,0,0,1,7.82-9.53,63.13,63.13,0,0,1,20.37-13.83,50.15,50.15,0,0,1,12-3.39,42.78,42.78,0,0,1,12.53-.15,21.75,21.75,0,0,1,3.11.54c1,.24,2.07.4,3.07.74l1.51.45,1.48.53c1,.34,1.94.78,2.91,1.17a67.2,67.2,0,0,1,10.8,6.17c6.8,4.66,12.9,10.08,19.18,15s12.94,9.24,20.2,11.63c.9.31,1.82.54,2.73.79s1.84.45,2.77.56l1.39.21,1.39.12a23,23,0,0,0,2.74.07,25.37,25.37,0,0,0,10.47-2.8,22.37,22.37,0,0,0,8.07-6.89,14.67,14.67,0,0,0,2.74-9.42Z"/><path class="cls-11" d="M687.25,374c2,12.5,3.91,26.57,2.46,39.15a4.36,4.36,0,0,1-.06.49c-1.51,12.42-6.2,24.76-15,33.59-9.35,9.35-22.32,13.94-34.82,18.24-14.47,5-28.35,9.86-43.11,13.89-18.78,5.12-37.7,10.28-57.11,11.82s-39.55-.71-56.81-9.71c-28.67-14.95-45.27-46.09-54.3-77.12-2.57-8.83-4.71-17.92-9.26-25.92-4.39-7.73-11.5-14.47-20.19-16.1-.3-.06-.61-.11-.91-.15-14-2-26.44,9.6-33.28,22s-10.06,26.7-19.45,37.29c-12.82,14.46-36.07,19.14-53.62,11s-29-28.16-26.31-47.3c9.53,20.72,38.82,29.2,57.94,16.77,14.62-9.49,21.37-27.17,33-40.16,16.61-18.56,44.16-26.51,68.11-19.68,30.07,8.58,50.08,36.48,76.57,53.13a113.4,113.4,0,0,0,88.63,13.33C623.22,399.56,652.56,375.08,687.25,374Z"/><path class="cls-12" d="M367.71,447.64q-.24.27-.51.54c-11.91,12.91-32.67,22.11-55.36,23.16-17.71.81-35.55-6.44-48.18-18.88-5.2-5.12-9.52-11.08-14.81-16.11s-11.9-9.19-19.19-9.5c-9.8-.41-18.69,6.32-24.16,14.47s-8.31,17.72-12.11,26.76a133.23,133.23,0,0,1-57.74,64.28,133.23,133.23,0,0,1-85.12,14.79c-16-2.61-29.66-6.22-41.47-17.39-10.13-9.58-16.94-22.2-21.7-35.31-6.3-17.35-9.19-35.42-10-53.79-1.24-27.1,2-54.85,5.27-81.89,2.15-17.67,4.84-32.46,18.69-43.65,12.2,29.77,32.86,58.86,63.61,68.32,25.43,7.82,53,.79,77.65-9.29s48.28-23.3,74.37-28.49,56.3-.53,73.34,19.89c8.63,10.34,13,23.49,17.2,36.27s8.78,25.89,17.71,36S355,452.12,367.71,447.64Z"/><path class="cls-13" d="M390.66,439.73q-.24.27-.51.54a63.11,63.11,0,0,1-78-16.54c-8.52-10.55-13.81-24-24.67-32.1-12.76-9.53-30.68-9.42-45.69-4.09s-27.93,15.13-41,24.18c-34,23.46-72.3,43-113.52,46.09-30.73,2.3-63.28-6.13-87-25.06-1.24-27.1,2-54.85,5.27-81.89,2.15-17.67,4.84-32.46,18.69-43.65,12.2,29.77,32.86,58.86,63.61,68.32,25.43,7.82,53,.79,77.65-9.29s48.28-23.3,74.37-28.49,56.3-.53,73.34,19.89c8.63,10.34,13,23.49,17.2,36.27s8.78,25.89,17.71,36S378,444.21,390.66,439.73Z"/><path class="cls-9" d="M-35.81,411.42a137.94,137.94,0,0,0,60.34,10.66A153.67,153.67,0,0,0,40,420.57c2.57-.33,5.11-.88,7.66-1.33l3.79-.84c1.27-.27,2.53-.56,3.78-.91l3.76-1,3.72-1.13,1.86-.57,1.83-.64L70,412.88c2.41-1,4.86-1.82,7.22-2.9,1.18-.52,2.38-1,3.56-1.56l3.5-1.68a136.29,136.29,0,0,0,47.9-38.69c12.82-16.45,22.36-35.64,33.41-54.29q4.14-7,8.68-13.86c3.07-4.53,6.33-9,9.86-13.3.86-1.08,1.81-2.1,2.71-3.15s1.82-2.1,2.79-3.09l2.88-3,3-2.89c.5-.47,1-1,1.51-1.43l1.58-1.37c1.06-.91,2.09-1.85,3.18-2.72,2.2-1.72,4.37-3.48,6.71-5s4.72-3.05,7.11-4.52c1.23-.68,2.49-1.31,3.74-2,.63-.32,1.24-.67,1.89-1l1.94-.85c1.31-.54,2.57-1.18,3.92-1.64l4-1.41c1.34-.47,2.75-.75,4.12-1.14l2.07-.53c.7-.14,1.41-.25,2.11-.38a62.06,62.06,0,0,1,33.83,3c10.72,4.05,20.06,10.92,27.77,19a105,105,0,0,1,10.48,13,120.94,120.94,0,0,1,8.34,14.35,122.92,122.92,0,0,1,6.34,15.3c.9,2.61,1.69,5.25,2.41,7.92s1.31,5.32,1.93,8a298.36,298.36,0,0,1,4.81,32.21c1.09,10.75,1.86,21.46,2.9,32.1a293.06,293.06,0,0,0,4.5,31.56,127.71,127.71,0,0,0,4,15.27,124.66,124.66,0,0,0,5.76,14.67,119.62,119.62,0,0,0,7.57,13.78,98.57,98.57,0,0,0,9.51,12.46,70,70,0,0,0,25,18.14,57,57,0,0,0,14.92,4,60.38,60.38,0,0,0,15.49,0c10.34-1.27,20.32-5,29.63-10a180.15,180.15,0,0,0,26.46-17.68c4.19-3.3,8.31-6.71,12.37-10.19s8.1-7,12.24-10.49a247.85,247.85,0,0,1,26-19.37c9.15-5.78,19-10.75,29.49-13.68a72.35,72.35,0,0,1,16.16-2.65,63.81,63.81,0,0,1,16.31,1.37c10.74,2.31,20.57,7.37,29.65,13.14s17.64,12.37,26.48,18.39S668,465.36,678.09,468.7a61.18,61.18,0,0,0,15.6,3.06,44.76,44.76,0,0,0,15.73-1.85l.3,1a45.89,45.89,0,0,1-16.09,2.06,62.64,62.64,0,0,1-16-2.95c-10.34-3.29-19.9-8.57-28.88-14.5S631.25,443,622.17,437.41s-18.7-10.43-29.06-12.54a60.8,60.8,0,0,0-15.7-1.15,69.74,69.74,0,0,0-15.54,2.72c-10.15,2.94-19.67,7.88-28.58,13.65a243.73,243.73,0,0,0-25.43,19.38c-4.07,3.47-8,7-12.11,10.6s-8.17,7-12.38,10.42a184.45,184.45,0,0,1-26.85,18.35c-9.56,5.2-20,9.28-31,10.76a65.1,65.1,0,0,1-16.62.17,61.83,61.83,0,0,1-16.16-4.12,75.05,75.05,0,0,1-26.94-19.11,104.37,104.37,0,0,1-10.15-13,124.79,124.79,0,0,1-8.08-14.34,135.88,135.88,0,0,1-10.47-31.07A296.64,296.64,0,0,1,332.17,396c-1.16-10.73-2.05-21.43-3.24-32-2.44-21.15-5.81-42.33-15.45-60.9a112,112,0,0,0-8-13.39,96.83,96.83,0,0,0-9.85-11.95c-7.17-7.35-15.67-13.4-25.12-16.85a54,54,0,0,0-29.54-2.3l-1.85.35-1.82.49c-1.21.36-2.44.61-3.63,1l-3.56,1.29c-1.19.42-2.32,1-3.49,1.51l-1.73.78c-.57.27-1.13.59-1.69.89-1.12.61-2.25,1.19-3.36,1.82-2.16,1.37-4.38,2.64-6.43,4.19s-4.11,3.09-6.13,4.69c-1,.81-1.94,1.7-2.91,2.54L203,279.43c-.48.43-.93.9-1.4,1.35l-2.77,2.71-2.65,2.85c-.9.93-1.74,1.92-2.58,2.91s-1.71,1.95-2.51,3c-3.28,4-6.27,8.27-9.18,12.67s-5.62,8.92-8.28,13.52c-10.64,18.36-20.07,38-33.51,55.68a144.7,144.7,0,0,1-10.83,12.68c-2,2-3.9,4-6,5.82-1,.93-2,1.9-3.1,2.79L117,398.08a147.23,147.23,0,0,1-13.47,9.83c-2.3,1.55-4.72,2.93-7.1,4.36-1.2.71-2.43,1.34-3.65,2s-2.43,1.34-3.69,1.94l-3.73,1.84c-1.26.6-2.53,1.14-3.8,1.71C79,421,76.39,421.91,73.82,423l-3.91,1.41-2,.71-2,.63L62,427l-4,1.11c-1.33.38-2.68.71-4,1l-4.06.94c-2.73.52-5.44,1.13-8.19,1.51a159,159,0,0,1-16.59,1.8,149.41,149.41,0,0,1-65.58-10.91Z"/></g><path class="cls-14" d="M273.66,405a3.87,3.87,0,1,1-3.87-3.87A3.87,3.87,0,0,1,273.66,405Z"/><path class="cls-14" d="M485.37,323.82A3.87,3.87,0,1,1,481.5,320,3.86,3.86,0,0,1,485.37,323.82Z"/><path class="cls-14" d="M126,387.43a6.27,6.27,0,1,1-6.27-6.26A6.27,6.27,0,0,1,126,387.43Z"/><path class="cls-15" d="M129.15,344.1a6.51,6.51,0,1,1-6.51-6.51A6.51,6.51,0,0,1,129.15,344.1Z"/><path class="cls-15" d="M122.06,190.12a3,3,0,1,1-3-3A3,3,0,0,1,122.06,190.12Z"/><circle class="cls-15" cx="438.16" cy="412.68" r="2.97"/><circle class="cls-16" cx="583.58" cy="294.02" r="8.34"/><path class="cls-16" d="M45.78,281a3.86,3.86,0,1,1-3.86-3.86A3.85,3.85,0,0,1,45.78,281Z"/><path class="cls-16" d="M505.3,408.82a3.86,3.86,0,1,1-3.85-3.86A3.85,3.85,0,0,1,505.3,408.82Z"/><path class="cls-17" d="M631.74,209.39a6.28,6.28,0,1,1-6.28-6.28A6.28,6.28,0,0,1,631.74,209.39Z"/><path class="cls-17" d="M215.14,348a3.91,3.91,0,1,1-3.91-3.91A3.91,3.91,0,0,1,215.14,348Z"/><path class="cls-17" d="M415.55,357.21a3.91,3.91,0,1,1-3.9-3.91A3.91,3.91,0,0,1,415.55,357.21Z"/></g></g></svg>