<svg xmlns="http://www.w3.org/2000/svg" xmlns:xlink="http://www.w3.org/1999/xlink" viewBox="0 0 671.22 439.31"><defs><style>.cls-1{fill:none;}.cls-2{isolation:isolate;}.cls-3{fill:#fff;}.cls-4{clip-path:url(#clip-path);}.cls-5{fill:url(#linear-gradient);}.cls-6{mix-blend-mode:multiply;fill:url(#radial-gradient);}.cls-7{fill:url(#linear-gradient-2);}.cls-8{fill:url(#linear-gradient-3);}.cls-13,.cls-9{mix-blend-mode:overlay;}.cls-9{fill:url(#linear-gradient-4);}.cls-10{fill:url(#linear-gradient-5);}.cls-11{fill:url(#linear-gradient-6);}.cls-12{fill:url(#linear-gradient-7);}.cls-13{fill:url(#linear-gradient-8);}.cls-14{fill:url(#linear-gradient-9);}.cls-15{fill:#f6efa7;}.cls-16{fill:#ff0078;}.cls-17{fill:#5d69bf;}.cls-18{fill:#c89feb;}</style><clipPath id="clip-path"><rect class="cls-1" y="61.22" width="671.22" height="377.56"/></clipPath><linearGradient id="linear-gradient" x1="195" y1="512.03" x2="185.81" y2="322.84" gradientTransform="translate(170.84 -43.59) rotate(24.38)" gradientUnits="userSpaceOnUse"><stop offset="0" stop-color="#ff0078"/><stop offset="0.09" stop-color="#ff0c7a"/><stop offset="0.26" stop-color="#fd2d81"/><stop offset="0.49" stop-color="#fb638b"/><stop offset="0.77" stop-color="#f9ac9a"/><stop offset="1" stop-color="#f6efa7"/></linearGradient><radialGradient id="radial-gradient" cx="910.45" cy="600.7" r="36.66" gradientTransform="matrix(-2.54, 0, 0, -1.59, 2445.42, 1375.85)" gradientUnits="userSpaceOnUse"><stop offset="0.12" stop-color="#6f7399"/><stop offset="0.24" stop-color="#7b7fa2"/><stop offset="0.47" stop-color="#9c9fb9"/><stop offset="0.77" stop-color="#d1d2df"/><stop offset="1" stop-color="#fff"/></radialGradient><linearGradient id="linear-gradient-2" x1="347.82" y1="48.9" x2="344.4" y2="526.21" gradientUnits="userSpaceOnUse"><stop offset="0" stop-color="#fff"/><stop offset="1" stop-color="#fff" stop-opacity="0"/></linearGradient><linearGradient id="linear-gradient-3" x1="386.09" y1="596.19" x2="354.43" y2="202.99" gradientTransform="matrix(-1, 0, 0, 1, 563.78, 0)" gradientUnits="userSpaceOnUse"><stop offset="0.12" stop-color="#5d69bf"/><stop offset="0.27" stop-color="#696fc4"/><stop offset="0.56" stop-color="#8a80d2"/><stop offset="0.94" stop-color="#bf9be7"/><stop offset="1" stop-color="#c89feb"/></linearGradient><linearGradient id="linear-gradient-4" x1="303.09" y1="482.7" x2="263.26" y2="311.13" xlink:href="#linear-gradient-2"/><linearGradient id="linear-gradient-5" x1="524.22" y1="479.55" x2="528.82" y2="356.49" gradientTransform="matrix(0.86, -0.06, 0.05, 0.77, 13.92, 96.59)" xlink:href="#linear-gradient-3"/><linearGradient id="linear-gradient-6" x1="94.94" y1="335.2" x2="-114.34" y2="434.28" gradientTransform="matrix(0.99, 0.16, -0.16, 0.99, 59.34, -8.3)" gradientUnits="userSpaceOnUse"><stop offset="0" stop-color="#ff0078"/><stop offset="0.79" stop-color="#f8bd9d"/><stop offset="1" stop-color="#f6efa7"/></linearGradient><linearGradient id="linear-gradient-7" x1="864.85" y1="213.35" x2="330.5" y2="494.03" gradientTransform="matrix(-0.98, -0.21, -0.21, 0.98, 796.45, 88.93)" xlink:href="#linear-gradient"/><linearGradient id="linear-gradient-8" x1="82.66" y1="490.55" x2="158.23" y2="204.59" xlink:href="#linear-gradient-2"/><linearGradient id="linear-gradient-9" x1="336.74" y1="118.5" x2="334.11" y2="485.66" xlink:href="#linear-gradient-2"/></defs><g class="cls-2"><g id="BACKGROUND"><rect class="cls-3" x="-39.39" width="750" height="500"/></g><g id="OBJECTS"><g class="cls-4"><path class="cls-5" d="M46,279c16.55,1.49,34.72,11.16,45.13,24.1s21,27.92,37.36,31c12.44,2.35,25.19-2.39,36.1-8.83s20.75-14.65,32.07-20.33,24.93-8.61,36.63-3.76c10.61,4.4,17.8,14.34,23.54,24.29s10.8,20.62,19.29,28.35c13,11.81,32.13,14.73,49.42,11.82s36.13-13.75,52.75-17.12c-12.81,14.76-29.9,28.67-42.72,43.42-15.51,17.87-31.17,35.87-50.09,50.08s-41.6,24.51-65.25,24.72c-26.34.24-51.76-12.19-70.9-30.29s-32.55-41.48-42.8-65.75c-7.58-17.92-13.59-36.54-22.62-53.77S63.18,288.07,46,279Z"/><ellipse class="cls-6" cx="137.38" cy="419.89" rx="92.94" ry="58.35" transform="translate(-92.41 42.56) rotate(-13.22)"/><path class="cls-7" d="M-22.84,375.42A335.07,335.07,0,0,1,19.5,248.35c10.18-17.63,24.65-36,44.93-37.68,15.17-1.29,29.77,7.58,39.32,19.43s15,26.42,20.23,40.71q26.78,72.76,53.57,145.54c8.56,23.26,19.09,48.75,41.55,59.24s50.38,1.49,68.5-15.53,28.52-40.54,37.75-63.63,18-46.95,34-66,41-32.68,65.4-27.78c15.86,3.18,29.15,13.5,43.14,21.62A169.53,169.53,0,0,0,695.17,270.1c5.4,14.19,13.66,30.55,19.06,44.73-58.25,53.1-148.3,67.26-217.8,30.08-26.08-14-53.18-34.73-81.88-27.58-16,4-28.81,16.42-37.16,30.64s-12.89,30.29-17.75,46c-10.55,34.24-23.47,68.78-47.11,95.7s-60.16,45.08-95.3,38.1c-30.41-6-55-29.81-69.21-57.35S128.48,411.74,124.38,381s-7.27-61.92-17.71-91.1c-5.24-14.63-16.93-31.11-32.12-27.89-12.66,2.68-18.27,17.39-20.66,30.1a236,236,0,0,0,6.32,112.3A68.6,68.6,0,0,1,12.93,409C-2.68,404.72-13.85,388.88-22.84,375.42Z"/><path class="cls-8" d="M-78,263.74c.71,6.15,1,12.66,1.17,19.31.79,30.48-1.16,64.08,21.44,81.26A86,86,0,0,0,21.86,377.4c16.39-5.33,32.1-15.81,49.23-14,15.51,1.66,28.22,13.27,37.1,26.09s15.15,27.38,24.75,39.68a91,91,0,0,0,125.94,17.14c13.93-10.32,24.61-24.37,37.44-36s29.38-21.21,46.61-19.3c18.15,2,32.91,16.66,40.32,33.36s9.56,36.39,10.83,54.61c26.61-16.86,48-33.2,78.76-40.05-3.3-22.19-8.5-44.61-20.34-63.68s-31.31-34.47-53.66-36.63c-26.9-2.61-51.68,13.65-73.33,29.87s-44.76,33.89-71.77,34.77c-19.74.65-38.35-8.1-53.47-21.2a116.69,116.69,0,0,1-17.33-18.86c-16.72-22.74-26.22-49.81-37.42-75.71s-25-51.88-47.55-68.85-55.87-22.5-78.9-6.2c-12,8.51-19.79,21.61-28,33.88s-17.77,24.6-31.46,30.06S-72.65,277.45-78,263.74Z"/><path class="cls-9" d="M429.5,368.6c-.71,6.15-1,12.66-1.18,19.31a58.42,58.42,0,0,1-76.63,11c-12.26-8-21-20.25-30.81-31.13S299,346.74,284.42,345.12c-19.16-2.13-36.72,11.19-48.67,26.3-12.64,16-21.53,34.53-31,52.55s-19.94,36-34.92,49.8a87,87,0,0,1-18.63,13.16,116.3,116.3,0,0,0,17.34-18.86c16.72-22.74,26.22-49.81,37.41-75.71s25-51.88,47.56-68.85,55.86-22.5,78.89-6.2c12,8.51,19.8,21.61,28,33.88s17.77,24.6,31.46,30.06S424.1,382.31,429.5,368.6Z"/><path class="cls-10" d="M288.72,443.56c13.71,9.18,34.4,5.62,47.8-4.27s21-24.59,27.37-39S376,370.8,386.82,358.68s28.48-20.89,45.24-17.49c14.77,3,25.24,14.33,33.9,25.38,8.93,11.4,17.28,23.34,28.59,32.89s26.27,16.59,41.9,15.68c15.3-.89,29-9.2,39.9-19s19.72-21.28,30.62-31.06c21.66-19.44,51.39-31.5,81.82-33.19-21.69.95-41.28,13.71-54.61,29.21S612.56,395,603.65,412.8,584.7,448.58,568.83,462,530,483.76,509.15,478.6c-20.07-5-33.85-20.67-48.09-34.17s-33.35-26.36-53.95-23c-15.92,2.63-27.88,14.25-41.69,21.93C340.49,457.26,313.74,456.66,288.72,443.56Z"/><path class="cls-11" d="M182.71,440.07c-20.39,17.39-43.11,32.54-68.46,41.25s-53.56,10.64-78.93,2-47.38-28.64-55.27-54.25c-8.08-26.25-.8-55.42,13.87-78.64C3.27,335.61,15.44,322.74,24.83,308s16-32.56,12.45-49.7c-4.51-21.56-26.64-37.9-48.56-35.86,11.8-6.8,25.25-4.58,36.45,3.18s18.54,20,23.4,32.73S56.11,284.46,60,297.5a214.82,214.82,0,0,0,80.59,112.19C154.19,419.31,168.13,432.09,182.71,440.07Z"/><path class="cls-12" d="M-165.41,334.42C-139.6,386.25-74.73,410-18.2,397.51S84.66,342.42,114,292.49C126,272,137.13,248.61,158.54,238.24c29.44-14.26,66.51,4.2,83.31,32.25s18.2,62.5,17.39,95.19S256,432,266.52,463s38.13,59,70.82,58.11c30.52-.81,54.72-25.13,83.09-36.38,48.11-19.05,109.16,6.43,129.44,54,13.43-26.24,36.69-52.18,48.14-80.15a88.58,88.58,0,0,0,6.35-24c2.43-22.58-16.47-43.49-38.4-49.4s-45.45.23-65.91,10.08-39,23.32-59.37,33.37S397,445.31,374.91,440c-12.31-3-23.07-9.27-32.28-17.71-14.73-13.47-25.51-32.35-32.32-51.41-11.06-31-14.68-64.35-27.09-94.81s-37.14-59.35-69.87-62.7C177,209.68,145.89,237.57,120.68,264s-54.42,55.47-90.93,55c-34-.42-61.46-26.39-85.21-50.68l-48.11-49.21A631.68,631.68,0,0,0-165.41,334.42Z"/><path class="cls-13" d="M235.56,423.19a79.61,79.61,0,0,1-48.27,14.31c-20.28-.87-39.43-9.55-56.86-19.93s-33.79-22.63-51.9-31.78S39.87,370.64,19.85,374C1.75,377-15.53,389-21.8,406a88.41,88.41,0,0,1-1.27-24.77C-20.79,358.61,2,342.05,24.7,340.79s44.42,9.6,62.41,23.46,33.34,30.87,51.2,44.91,39.31,25.29,62,24.69C213,433.51,224.81,429.54,235.56,423.19Z"/><path class="cls-14" d="M693.06,139.4l-35.9,7.6-35.88,7.72-17.93,3.87c-6,1.31-11.83,2.71-17.57,4.43-11.43,3.45-22.49,8.38-31,16.5A51.28,51.28,0,0,0,549,186a39.59,39.59,0,0,0-4.48,7.42,38.25,38.25,0,0,0-2.75,8.16,36.71,36.71,0,0,0-.68,8.57A42.75,42.75,0,0,0,545.45,227a80.43,80.43,0,0,0,9.67,15c7.48,9.45,16.37,17.83,24.79,26.82a206.4,206.4,0,0,1,22.77,29.09A164.65,164.65,0,0,1,619.12,331a132,132,0,0,1,7.65,36.16l.11,4.64c0,1.54.15,3.09,0,4.63l-.23,4.64-.12,2.32-.25,2.31a91.53,91.53,0,0,1-4,18.14,100.8,100.8,0,0,1-17.82,32.36,88.72,88.72,0,0,1-28.75,23.15,74.46,74.46,0,0,1-17.55,6.13,66.22,66.22,0,0,1-18.58,1.19c-12.44-.88-24.46-5.07-35.22-11.13a147.93,147.93,0,0,1-29.46-22.28c-8.88-8.54-16.95-17.81-25-27s-16.12-18.37-24.88-26.78-18.21-16.05-28.85-21.74-22.1-9.75-33.93-10.71a59.34,59.34,0,0,0-17.6,1.09,64.59,64.59,0,0,0-16.48,6.14c-1.28.74-2.6,1.39-3.84,2.2l-3.71,2.42-3.56,2.66c-1.19.88-2.28,1.9-3.43,2.84a123.86,123.86,0,0,0-12.6,12.7A260.49,260.49,0,0,0,280,406.48c-6.6,10.29-13.2,20.75-20.9,30.64s-16.69,19.15-27.6,26.33A80.94,80.94,0,0,1,213.8,472a86.54,86.54,0,0,1-19.23,4c-13,1.28-26-.15-38.53-2.95a173.09,173.09,0,0,1-18.42-5.27c-6-2.06-11.86-4.37-17.62-6.79-11.53-4.82-22.66-10.05-33.71-14.8-5.53-2.37-11.05-4.6-16.57-6.61l-4.14-1.47-4.15-1.36c-2.75-.85-5.49-1.64-8.25-2.31-11-2.71-22.25-4.19-32.94-3.54s-20.7,3.37-28.95,8.39l-13.14-25.56A89.19,89.19,0,0,1-.93,407.33a100.55,100.55,0,0,1,21-1.38,118.77,118.77,0,0,1,20.2,2.4,155.39,155.39,0,0,1,19.13,5.24c12.47,4.28,23.88,9.79,35,15.52s21.7,11.67,32.43,17c5.37,2.66,10.76,5.18,16.2,7.44a145.66,145.66,0,0,0,16.54,5.83c11.19,3.18,22.75,5.07,34.16,4.57a74.3,74.3,0,0,0,16.75-2.68,69.76,69.76,0,0,0,15.62-6.62A86.17,86.17,0,0,0,240,444.34a126,126,0,0,0,12.29-12.77c3.86-4.56,7.52-9.33,11.09-14.22s7-9.93,10.46-15a266.22,266.22,0,0,1,22.61-29.45A130.16,130.16,0,0,1,310,360c1.24-1,2.42-2,3.71-2.91l3.86-2.73,4-2.49c1.35-.83,2.79-1.5,4.18-2.25a69.92,69.92,0,0,1,18-6.16,64.62,64.62,0,0,1,18.92-.81c12.58,1.26,24.54,5.74,35.35,11.84a126.53,126.53,0,0,1,15.44,10.37,168.93,168.93,0,0,1,13.86,12.29c8.81,8.63,16.81,18,24.77,27.24s16,18.48,24.72,26.94a144.72,144.72,0,0,0,28.84,22c10.49,6,22.13,10.06,34.14,11a63.38,63.38,0,0,0,17.92-1.08,70.83,70.83,0,0,0,17-5.88,86.49,86.49,0,0,0,27.93-22.61A98.34,98.34,0,0,0,620,403a89.09,89.09,0,0,0,3.83-17.65l.24-2.25.11-2.26.21-4.53c.12-1.51,0-3,0-4.53l-.12-4.54a125.05,125.05,0,0,0-7.73-35.34,160.81,160.81,0,0,0-16.42-32.35,202.71,202.71,0,0,0-22.65-28.43c-4.13-4.43-8.57-8.66-12.87-13S556,249.25,552,244.44a84.3,84.3,0,0,1-10.38-15.64,46.92,46.92,0,0,1-5.08-18.41,42,42,0,0,1,.62-9.68,43.1,43.1,0,0,1,3-9.24,46.73,46.73,0,0,1,4.84-8.34,56.38,56.38,0,0,1,6.24-7.28,67.19,67.19,0,0,1,7.31-6.17,70.1,70.1,0,0,1,8.09-5A104.74,104.74,0,0,1,584,157.42C590,155.5,596,154,601.93,152.5l17.84-4.35,35.66-8.69,35.63-8.8Z"/><path class="cls-15" d="M140.93,284.08a5.26,5.26,0,1,1,5.64-5.24A5.46,5.46,0,0,1,140.93,284.08Z"/><path class="cls-15" d="M650,282.09c-5,0-9.14-3.8-9.14-8.5s4.09-8.5,9.14-8.5,9.14,3.81,9.14,8.5S655.05,282.09,650,282.09Z"/><path class="cls-16" d="M226.5,318.14c-5.25,0-9.5-3.95-9.5-8.83s4.25-8.84,9.5-8.84,9.5,4,9.5,8.84S231.74,318.14,226.5,318.14Z"/><path class="cls-16" d="M492.86,353.73a4,4,0,1,1,4.33-4A4.19,4.19,0,0,1,492.86,353.73Z"/><ellipse class="cls-17" cx="72.12" cy="213.14" rx="12.16" ry="11.31"/><ellipse class="cls-17" cx="531.32" cy="433.22" rx="12.16" ry="11.31"/><path class="cls-17" d="M336.58,395.5a5.25,5.25,0,1,1,5.63-5.23A5.44,5.44,0,0,1,336.58,395.5Z"/><path class="cls-18" d="M81.29,393.55c-5.06,0-9.17-3.81-9.17-8.52s4.11-8.52,9.17-8.52,9.16,3.81,9.16,8.52S86.35,393.55,81.29,393.55Z"/><path class="cls-18" d="M347.9,223.74a5.31,5.31,0,1,1,5.7-5.3A5.51,5.51,0,0,1,347.9,223.74Z"/></g></g></g></svg>